<?xml version="1.0" encoding="utf-8"?>
<!-- Generator: Adobe Illustrator 19.1.0, SVG Export Plug-In . SVG Version: 6.00 Build 0)  -->
<svg version="1.1" id="Layer_1" xmlns="http://www.w3.org/2000/svg" xmlns:xlink="http://www.w3.org/1999/xlink" x="0px" y="0px"
	 viewBox="0 0 498.9 84" style="enable-background:new 0 0 498.9 84;" xml:space="preserve">
<style type="text/css">
	.st0{fill-rule:evenodd;clip-rule:evenodd;fill:#0059FF;}
	.st1{fill:#000;}
</style>
<g>
	<path class="st0" d="M11,40.1l28.2,41.7C63,56.6,83.4,25.5,126,26.1C103.7,17,62.3,36.9,39.9,55.4L11,40.1L11,40.1z M456.9,82.3
		l4.8-25.2c2.3-12.6,8.7-19.4,14.2-19.4c4.2,0,5.6,2.8,5.6,6.7c0,2.1-0.2,4.4-0.6,6.4l-5.9,31.5h16.7l6.3-33
		c0.5-2.8,0.9-7.1,0.9-9.7c0-9.8-5.2-15.5-14.5-15.5c-7.6,0-14.7,3.3-20,10.7h-0.2l1.2-9.4h-14.9c-0.7,5-1.6,11.3-3,18.5l-7.2,38.4
		H456.9L456.9,82.3z M342.1,82.3l13.4-31.7c4-9.7,6.6-18,9.5-26.4h0.2c-0.5,8.8-0.7,16.7-0.7,25.9l0.6,32.2h18.3l34.5-78.4h-17.6
		l-13.6,34.9c-3,8.4-5.9,16.9-8.6,25h-0.2c0.3-7.7,0.6-15.5,0.7-24.9l0.2-35h-18.4L346.4,39c-3.6,9.5-6.5,17.4-9.2,25.1H337
		c0.2-7,0.3-15.9,0.5-25.4l-0.1-34.9h-16.9l3,78.4H342.1L342.1,82.3z M426.1,82.3l10.8-56.9h-16.7l-10.8,56.9H426.1L426.1,82.3z
		 M430.6,18.3c5.3,0,9.9-3.5,9.9-9.4c0-5-3.5-8.3-8.4-8.3c-5.1,0-9.5,3.8-9.7,9.5C422.5,15.2,425.9,18.3,430.6,18.3L430.6,18.3z"/>
	<path class="st1" d="M303.8,66.9c-4.5,2.2-9.8,3.6-15.9,3.6c-4.9,0-8.7-1.5-10.9-4.4c-1.2-1.6-1.7-4.2-1.7-5.8
		c22.8,0.6,36.9-4.7,36.9-19.2c0-10.6-8.3-17-19.8-17c-20.6,0-33.1,18-33.1,35.4c0,14.8,8.4,24,24.7,24c6.3,0,14.5-1,21.2-4.4
		L303.8,66.9L303.8,66.9z M296.4,41.2c0,5.1-6.5,7-19.5,6.9c1.2-5.4,5.6-11.7,13.4-11.7C294.1,36.3,296.4,38.3,296.4,41.2
		L296.4,41.2z M202.8,25.4l9.7,56.9h17l31.7-56.9h-18.7l-11.5,25c-3,7-4.9,11.3-6.3,15.4h-0.5c-0.2-4.2-0.9-8.5-1.5-15.5l-2.6-24.9
		H202.8L202.8,25.4z M185,82.3l10.8-56.9H179l-10.8,56.9H185L185,82.3z M189.5,18.3c5.3,0,9.9-3.5,9.9-9.4c0-5-3.5-8.3-8.4-8.3
		c-5.1,0-9.5,3.8-9.7,9.5C181.4,15.2,184.9,18.3,189.5,18.3L189.5,18.3z M142.9,13.4l-2.3,12h-7.3l-2.3,12.7h7.2l-4.4,22.7
		c-0.8,4.3-1.2,7.4-1.2,10.6c0,7.1,4.8,12.2,14.8,12.2c3.6,0,7.8-0.5,9.9-1.3l2-13.1c-1.5,0.2-3.1,0.2-4.7,0.2c-3.6,0-4.8-2-4.8-4.8
		c0-2,0.5-4.9,0.9-7.2l3.8-19.3h12.1l2.4-12.7h-12.1l3-15.9L142.9,13.4L142.9,13.4z M125.1,28.8c-14.2-1.4-47.2,6.4-47.7,31.3
		c-0.3,14.8,9.9,23.3,24,23.3c6.7,0,12.6-1.2,16.2-2.9l-0.1-12.8l0,0c-2.9,1.2-6.4,2.3-11.3,2.3c-6.3,0-11.2-4-11.2-11.7
		c0-10.7,7.3-20.8,19.3-20.8c3.4,0,5.7,0.6,7.7,1.4 M63.6,36.4L59.8,3.9H38.3L19.9,41.7l12.6,6.7l1.8-4l11.9-27.4h0.2
		c0.3,4.8,0.8,11,1.2,15.4l1.2,13.1C53.3,42.4,58.3,39.3,63.6,36.4L63.6,36.4z M15.4,50.9L0.2,82.3H18l7.1-16.4L15.4,50.9L15.4,50.9
		z M50.7,73.2l0.7,9H69l-3-25.5C60.9,62,55.9,67.6,50.7,73.2L50.7,73.2z"/>
</g>
</svg>
